<svg viewBox="0 0 900 650" xmlns="http://www.w3.org/2000/svg" font-family="Arial, sans-serif">
  <defs>
    <filter id="sh"><feDropShadow dx="2" dy="3" stdDeviation="4" flood-opacity="0.4"/></filter>
    <filter id="sh2"><feDropShadow dx="1" dy="2" stdDeviation="2" flood-opacity="0.3"/></filter>
    <radialGradient id="ledG" cx="40%" cy="35%"><stop offset="0%" stop-color="#afffaf"/><stop offset="100%" stop-color="#00b000"/></radialGradient>
    <radialGradient id="ledR" cx="40%" cy="35%"><stop offset="0%" stop-color="#ffaaaa"/><stop offset="100%" stop-color="#cc0000"/></radialGradient>
    <radialGradient id="ledY" cx="40%" cy="35%"><stop offset="0%" stop-color="#fffaaa"/><stop offset="100%" stop-color="#d4a000"/></radialGradient>
    <linearGradient id="stmGrad" x1="0%" y1="0%" x2="0%" y2="100%"><stop offset="0%" stop-color="#e8eef7"/><stop offset="100%" stop-color="#c8d8f0"/></linearGradient>
    <linearGradient id="stmPcb" x1="0%" y1="0%" x2="100%" y2="100%"><stop offset="0%" stop-color="#1a4a2a"/><stop offset="100%" stop-color="#0d3018"/></linearGradient>
    <linearGradient id="dht11Grad" x1="0%" y1="0%" x2="0%" y2="100%"><stop offset="0%" stop-color="#3a7bd5"/><stop offset="100%" stop-color="#1a4a9a"/></linearGradient>
    <linearGradient id="rfidGrad" x1="0%" y1="0%" x2="0%" y2="100%"><stop offset="0%" stop-color="#2d4a8a"/><stop offset="100%" stop-color="#1a2f5e"/></linearGradient>
    <linearGradient id="pirGrad" x1="0%" y1="0%" x2="0%" y2="100%"><stop offset="0%" stop-color="#2a5a2a"/><stop offset="100%" stop-color="#1a3a1a"/></linearGradient>
    <linearGradient id="espGrad" x1="0%" y1="0%" x2="0%" y2="100%"><stop offset="0%" stop-color="#1a4a1a"/><stop offset="100%" stop-color="#0d2e0d"/></linearGradient>
    <linearGradient id="rtcGrad" x1="0%" y1="0%" x2="0%" y2="100%"><stop offset="0%" stop-color="#4a2a2a"/><stop offset="100%" stop-color="#2e1a1a"/></linearGradient>
  </defs>

  <!-- Background -->
  <rect width="900" height="650" fill="#f0f0f0"/>

  <!-- Title bar -->
  <rect x="0" y="0" width="900" height="36" fill="#1e293b"/>
  <text x="450" y="14" text-anchor="middle" fill="white" font-size="11" font-weight="bold">IoT Secure Asset Management — Circuit Diagram</text>
  <text x="450" y="28" text-anchor="middle" fill="#94a3b8" font-size="8.5">STM32 F446RE Nucleo · Yaswanth Chlliboina · github.com/Yaswanth-Ch-24</text>

  <!-- ═══════════════════════════════════════
       STM32 F446RE NUCLEO BOARD (center)
       ═══════════════════════════════════════ -->
  <!-- PCB base -->
  <rect x="310" y="130" width="280" height="360" rx="8" fill="url(#stmPcb)" filter="url(#sh)"/>
  <!-- Board silkscreen outline -->
  <rect x="316" y="136" width="268" height="348" rx="6" fill="none" stroke="#2d6a3f" stroke-width="1.5"/>
  <!-- USB connector -->
  <rect x="380" y="133" width="50" height="18" rx="3" fill="#888" stroke="#555" stroke-width="1"/>
  <text x="405" y="145" text-anchor="middle" fill="white" font-size="7" font-weight="bold">USB</text>
  <!-- ST logo area -->
  <rect x="390" y="310" width="50" height="50" rx="4" fill="#1a5c2e"/>
  <text x="415" y="342" text-anchor="middle" fill="white" font-size="20" font-weight="bold" font-style="italic">ST</text>
  <!-- MCU chip -->
  <rect x="375" y="230" width="80" height="75" rx="3" fill="#111" stroke="#333" stroke-width="1.5"/>
  <text x="415" y="260" text-anchor="middle" fill="#aaa" font-size="7">STM32</text>
  <text x="415" y="272" text-anchor="middle" fill="#aaa" font-size="7">F446RE</text>
  <text x="415" y="284" text-anchor="middle" fill="#666" font-size="6">LQFP64</text>
  <!-- MCU legs -->
  <g fill="#888" stroke="none">
    <rect x="373" y="235" width="4" height="4"/><rect x="373" y="244" width="4" height="4"/>
    <rect x="373" y="253" width="4" height="4"/><rect x="373" y="262" width="4" height="4"/>
    <rect x="373" y="271" width="4" height="4"/><rect x="373" y="280" width="4" height="4"/>
    <rect x="453" y="235" width="4" height="4"/><rect x="453" y="244" width="4" height="4"/>
    <rect x="453" y="253" width="4" height="4"/><rect x="453" y="262" width="4" height="4"/>
    <rect x="453" y="271" width="4" height="4"/><rect x="453" y="280" width="4" height="4"/>
  </g>
  <!-- Crystal -->
  <rect x="462" y="245" width="18" height="28" rx="2" fill="#c8a000" stroke="#a07800" stroke-width="1"/>
  <text x="471" y="263" text-anchor="middle" fill="#1a1a00" font-size="6">XTAL</text>
  <!-- Header pins LEFT side of Nucleo -->
  <g fill="#c0c0c0" stroke="#888" stroke-width="0.5">
    <!-- Left connector CN7 -->
    <rect x="321" y="160" width="9" height="9" rx="1"/><rect x="321" y="173" width="9" height="9" rx="1"/>
    <rect x="321" y="186" width="9" height="9" rx="1"/><rect x="321" y="199" width="9" height="9" rx="1"/>
    <rect x="321" y="212" width="9" height="9" rx="1"/><rect x="321" y="225" width="9" height="9" rx="1"/>
    <rect x="321" y="238" width="9" height="9" rx="1"/><rect x="321" y="251" width="9" height="9" rx="1"/>
    <rect x="321" y="264" width="9" height="9" rx="1"/><rect x="321" y="277" width="9" height="9" rx="1"/>
    <rect x="321" y="290" width="9" height="9" rx="1"/><rect x="321" y="303" width="9" height="9" rx="1"/>
    <rect x="321" y="316" width="9" height="9" rx="1"/><rect x="321" y="329" width="9" height="9" rx="1"/>
    <rect x="321" y="342" width="9" height="9" rx="1"/><rect x="321" y="355" width="9" height="9" rx="1"/>
    <rect x="321" y="368" width="9" height="9" rx="1"/>
  </g>
  <!-- Header pins RIGHT side -->
  <g fill="#c0c0c0" stroke="#888" stroke-width="0.5">
    <rect x="570" y="160" width="9" height="9" rx="1"/><rect x="570" y="173" width="9" height="9" rx="1"/>
    <rect x="570" y="186" width="9" height="9" rx="1"/><rect x="570" y="199" width="9" height="9" rx="1"/>
    <rect x="570" y="212" width="9" height="9" rx="1"/><rect x="570" y="225" width="9" height="9" rx="1"/>
    <rect x="570" y="238" width="9" height="9" rx="1"/><rect x="570" y="251" width="9" height="9" rx="1"/>
    <rect x="570" y="264" width="9" height="9" rx="1"/><rect x="570" y="277" width="9" height="9" rx="1"/>
    <rect x="570" y="290" width="9" height="9" rx="1"/><rect x="570" y="303" width="9" height="9" rx="1"/>
    <rect x="570" y="316" width="9" height="9" rx="1"/><rect x="570" y="329" width="9" height="9" rx="1"/>
    <rect x="570" y="342" width="9" height="9" rx="1"/><rect x="570" y="355" width="9" height="9" rx="1"/>
    <rect x="570" y="368" width="9" height="9" rx="1"/>
  </g>
  <!-- Pin labels on board -->
  <g fill="#4ade80" font-size="7" font-family="'Courier New', monospace">
    <text x="335" y="167">PA4</text><text x="335" y="180">PA5</text>
    <text x="335" y="193">PA6</text><text x="335" y="206">PA7</text>
    <text x="335" y="219">PC7</text><text x="335" y="232">5V</text>
    <text x="335" y="245">3V3</text><text x="335" y="258">GND</text>
    <text x="335" y="271">PB7</text><text x="335" y="284">PB6</text>
    <text x="335" y="297">PA9</text>
  </g>
  <g fill="#4ade80" font-size="7" font-family="'Courier New', monospace" text-anchor="end">
    <text x="567" y="167">PC0</text><text x="567" y="180">PA2</text>
    <text x="567" y="193">PA3</text><text x="567" y="206">PB0</text>
    <text x="567" y="219">PB1</text><text x="567" y="232">PB2</text>
    <text x="567" y="245">PC1</text>
  </g>
  <!-- NUCLEO label -->
  <text x="450" y="480" text-anchor="middle" fill="#4ade80" font-size="8" font-weight="bold" font-family="'Courier New', monospace">NUCLEO-F446RE</text>
  <text x="450" y="492" text-anchor="middle" fill="#2d6a3f" font-size="7">STM32F446RET6</text>

  <!-- ═══════════════════════════════════════
       RC522 RFID MODULE (top-left)
       ═══════════════════════════════════════ -->
  <g filter="url(#sh2)">
    <rect x="50" y="80" width="140" height="100" rx="5" fill="url(#rfidGrad)"/>
    <rect x="55" y="85" width="130" height="90" rx="3" fill="none" stroke="#4a6abf" stroke-width="1" stroke-dasharray="3,3"/>
    <!-- Antenna coil representation -->
    <rect x="60" y="92" width="65" height="72" rx="3" fill="none" stroke="#6a8adf" stroke-width="1.5"/>
    <rect x="66" y="98" width="53" height="60" rx="2" fill="none" stroke="#6a8adf" stroke-width="1"/>
    <rect x="72" y="104" width="41" height="48" rx="2" fill="none" stroke="#5a7acf" stroke-width="0.8"/>
    <!-- IC chip on RC522 -->
    <rect x="135" y="100" width="45" height="55" rx="2" fill="#111" stroke="#333" stroke-width="1"/>
    <text x="157" y="122" text-anchor="middle" fill="#888" font-size="7">MFRC</text>
    <text x="157" y="133" text-anchor="middle" fill="#888" font-size="7">522</text>
    <!-- Header pins on RC522 -->
    <g fill="#c0a000" stroke="#907000" stroke-width="0.5">
      <rect x="136" y="160" width="7" height="12" rx="1"/><rect x="148" y="160" width="7" height="12" rx="1"/>
      <rect x="160" y="160" width="7" height="12" rx="1"/><rect x="172" y="160" width="7" height="12" rx="1"/>
    </g>
    <text x="56" y="190" fill="#a0b8ff" font-size="7" font-family="'Courier New', monospace">SDA SCK MOSI</text>
    <text x="56" y="200" fill="#a0b8ff" font-size="7" font-family="'Courier New', monospace">MISO RST</text>
  </g>
  <text x="120" y="75" text-anchor="middle" fill="#1e293b" font-size="9" font-weight="bold">RC522 RFID</text>

  <!-- ═══════════════════════════════════════
       DHT11 SENSOR (mid-left)
       ═══════════════════════════════════════ -->
  <g filter="url(#sh2)">
    <!-- DHT11 body - blue rectangle with holes -->
    <rect x="55" y="250" width="60" height="80" rx="6" fill="url(#dht11Grad)"/>
    <rect x="62" y="260" width="46" height="55" rx="3" fill="#1a3a7a"/>
    <!-- Sensor grille -->
    <rect x="65" y="265" width="40" height="40" rx="2" fill="#0d1f4a"/>
    <g stroke="#2a5aaa" stroke-width="1" fill="none">
      <line x1="70" y1="265" x2="70" y2="305"/><line x1="77" y1="265" x2="77" y2="305"/>
      <line x1="84" y1="265" x2="84" y2="305"/><line x1="91" y1="265" x2="91" y2="305"/>
      <line x1="98" y1="265" x2="98" y2="305"/>
      <line x1="65" y1="270" x2="105" y2="270"/><line x1="65" y1="277" x2="105" y2="277"/>
      <line x1="65" y1="284" x2="105" y2="284"/><line x1="65" y1="291" x2="105" y2="291"/>
      <line x1="65" y1="298" x2="105" y2="298"/>
    </g>
    <!-- DHT11 pins (3 legs) -->
    <g fill="#c0a000">
      <rect x="68" y="328" width="6" height="20" rx="1"/><rect x="82" y="328" width="6" height="20" rx="1"/>
      <rect x="96" y="328" width="6" height="20" rx="1"/>
    </g>
    <text x="71" y="358" fill="#555" font-size="6" text-anchor="middle">VCC</text>
    <text x="85" y="358" fill="#555" font-size="6" text-anchor="middle">DAT</text>
    <text x="99" y="358" fill="#555" font-size="6" text-anchor="middle">GND</text>
  </g>
  <text x="85" y="245" text-anchor="middle" fill="#1e293b" font-size="9" font-weight="bold">DHT11</text>

  <!-- ═══════════════════════════════════════
       DS1307 RTC MODULE (bottom-left)
       ═══════════════════════════════════════ -->
  <g filter="url(#sh2)">
    <rect x="40" y="430" width="155" height="90" rx="5" fill="url(#rtcGrad)"/>
    <rect x="46" y="436" width="143" height="78" rx="3" fill="none" stroke="#7a3a3a" stroke-width="1" stroke-dasharray="3,3"/>
    <!-- RTC chip -->
    <rect x="50" y="445" width="50" height="45" rx="2" fill="#111" stroke="#333" stroke-width="1"/>
    <text x="75" y="465" text-anchor="middle" fill="#888" font-size="7">DS1307</text>
    <text x="75" y="478" text-anchor="middle" fill="#666" font-size="6">RTC</text>
    <!-- Battery holder -->
    <circle cx="145" cy="468" r="22" fill="#555" stroke="#333" stroke-width="2"/>
    <circle cx="145" cy="468" r="17" fill="#888" stroke="#666" stroke-width="1"/>
    <text x="145" y="472" text-anchor="middle" fill="#222" font-size="7" font-weight="bold">CR2032</text>
    <!-- I2C header pins -->
    <g fill="#c0a000" stroke="#907000" stroke-width="0.5">
      <rect x="50" y="512" width="7" height="12" rx="1"/><rect x="62" y="512" width="7" height="12" rx="1"/>
      <rect x="74" y="512" width="7" height="12" rx="1"/><rect x="86" y="512" width="7" height="12" rx="1"/>
    </g>
    <text x="53" y="535" fill="#ffaaaa" font-size="6" text-anchor="middle">VCC</text>
    <text x="65" y="535" fill="#ffaaaa" font-size="6" text-anchor="middle">GND</text>
    <text x="77" y="535" fill="#ffaaaa" font-size="6" text-anchor="middle">SDA</text>
    <text x="89" y="535" fill="#ffaaaa" font-size="6" text-anchor="middle">SCL</text>
  </g>
  <text x="118" y="426" text-anchor="middle" fill="#1e293b" font-size="9" font-weight="bold">DS1307 RTC</text>

  <!-- ═══════════════════════════════════════
       PIR HC-SR501 (top-right)
       ═══════════════════════════════════════ -->
  <g filter="url(#sh2)">
    <rect x="720" y="80" width="110" height="110" rx="5" fill="url(#pirGrad)"/>
    <!-- Fresnel lens dome -->
    <circle cx="775" cy="135" r="38" fill="#f0f0f0" stroke="#888" stroke-width="2"/>
    <circle cx="775" cy="135" r="34" fill="#e8e8e8" stroke="#aaa" stroke-width="1"/>
    <!-- Dome segments -->
    <g stroke="#aaa" stroke-width="0.5" fill="none">
      <circle cx="775" cy="135" r="25"/><circle cx="775" cy="135" r="15"/>
      <line x1="775" y1="101" x2="775" y2="169"/>
      <line x1="741" y1="135" x2="809" y2="135"/>
      <line x1="751" y1="111" x2="799" y2="159"/>
      <line x1="751" y1="159" x2="799" y2="111"/>
    </g>
    <!-- PIR pins -->
    <g fill="#c0a000">
      <rect x="745" y="186" width="7" height="15" rx="1"/><rect x="772" y="186" width="7" height="15" rx="1"/>
      <rect x="799" y="186" width="7" height="15" rx="1"/>
    </g>
    <text x="748" y="210" fill="#555" font-size="6.5" text-anchor="middle">GND</text>
    <text x="775" y="210" fill="#555" font-size="6.5" text-anchor="middle">OUT</text>
    <text x="802" y="210" fill="#555" font-size="6.5" text-anchor="middle">5V</text>
    <!-- Trim pots -->
    <circle cx="732" cy="100" r="8" fill="#555" stroke="#333" stroke-width="1"/>
    <circle cx="818" cy="100" r="8" fill="#555" stroke="#333" stroke-width="1"/>
  </g>
  <text x="775" y="75" text-anchor="middle" fill="#1e293b" font-size="9" font-weight="bold">PIR HC-SR501</text>

  <!-- ═══════════════════════════════════════
       ESP8266 Wi-Fi Module (right)
       ═══════════════════════════════════════ -->
  <g filter="url(#sh2)">
    <rect x="700" y="270" width="150" height="105" rx="5" fill="url(#espGrad)"/>
    <rect x="706" y="276" width="138" height="93" rx="3" fill="none" stroke="#2a6a2a" stroke-width="1" stroke-dasharray="3,3"/>
    <!-- ESP module (shielded can) -->
    <rect x="720" y="285" width="70" height="55" rx="3" fill="#1a1a1a" stroke="#333" stroke-width="1.5"/>
    <text x="755" y="308" text-anchor="middle" fill="#666" font-size="8">ESP-01</text>
    <text x="755" y="320" text-anchor="middle" fill="#555" font-size="6">2.4GHz</text>
    <!-- Antenna trace -->
    <path d="M790 295 Q810 295 815 310 Q820 325 810 330 Q800 335 795 325" fill="none" stroke="#4a8a4a" stroke-width="2"/>
    <!-- LED indicators -->
    <circle cx="810" cy="345" r="4" fill="#00ff00" opacity="0.8"/>
    <circle cx="822" cy="345" r="4" fill="#ff4444" opacity="0.8"/>
    <!-- Header pins -->
    <g fill="#c0a000" stroke="#907000" stroke-width="0.5">
      <rect x="710" y="356" width="7" height="14" rx="1"/><rect x="722" y="356" width="7" height="14" rx="1"/>
      <rect x="734" y="356" width="7" height="14" rx="1"/><rect x="746" y="356" width="7" height="14" rx="1"/>
    </g>
    <text x="713" y="380" fill="#aaffaa" font-size="5.5" text-anchor="middle">VCC</text>
    <text x="725" y="380" fill="#aaffaa" font-size="5.5" text-anchor="middle">GND</text>
    <text x="737" y="380" fill="#aaffaa" font-size="5.5" text-anchor="middle">TX</text>
    <text x="749" y="380" fill="#aaffaa" font-size="5.5" text-anchor="middle">RX</text>
  </g>
  <text x="775" y="265" text-anchor="middle" fill="#1e293b" font-size="9" font-weight="bold">ESP8266 Wi-Fi</text>

  <!-- ═══════════════════════════════════════
       LEDs (bottom-right)
       ═══════════════════════════════════════ -->
  <!-- GREEN LED -->
  <g filter="url(#sh2)">
    <ellipse cx="710" cy="445" rx="12" ry="16" fill="url(#ledG)" stroke="#008800" stroke-width="1.5"/>
    <ellipse cx="710" cy="436" rx="10" ry="8" fill="#ccffcc" opacity="0.6"/>
    <rect x="705" y="460" width="4" height="20" fill="#c0a000"/><rect x="713" y="460" width="4" height="20" fill="#c0a000"/>
    <text x="710" y="492" text-anchor="middle" fill="#006600" font-size="8" font-weight="bold">GREEN</text>
    <text x="710" y="502" text-anchor="middle" fill="#555" font-size="7">PB0+220Ω</text>
  </g>
  <!-- RED LED -->
  <g filter="url(#sh2)">
    <ellipse cx="760" cy="445" rx="12" ry="16" fill="url(#ledR)" stroke="#880000" stroke-width="1.5"/>
    <ellipse cx="760" cy="436" rx="10" ry="8" fill="#ffcccc" opacity="0.6"/>
    <rect x="755" y="460" width="4" height="20" fill="#c0a000"/><rect x="763" y="460" width="4" height="20" fill="#c0a000"/>
    <text x="760" y="492" text-anchor="middle" fill="#880000" font-size="8" font-weight="bold">RED</text>
    <text x="760" y="502" text-anchor="middle" fill="#555" font-size="7">PB1+220Ω</text>
  </g>
  <!-- YELLOW LED -->
  <g filter="url(#sh2)">
    <ellipse cx="810" cy="445" rx="12" ry="16" fill="url(#ledY)" stroke="#886600" stroke-width="1.5"/>
    <ellipse cx="810" cy="436" rx="10" ry="8" fill="#ffffcc" opacity="0.6"/>
    <rect x="805" y="460" width="4" height="20" fill="#c0a000"/><rect x="813" y="460" width="4" height="20" fill="#c0a000"/>
    <text x="810" y="492" text-anchor="middle" fill="#664400" font-size="8" font-weight="bold">YELLOW</text>
    <text x="810" y="502" text-anchor="middle" fill="#555" font-size="7">PB2+220Ω</text>
  </g>
  <!-- BUZZER -->
  <g filter="url(#sh2)">
    <ellipse cx="860" cy="445" rx="14" ry="10" fill="#222" stroke="#444" stroke-width="2"/>
    <ellipse cx="860" cy="445" rx="8" ry="5" fill="#111"/>
    <circle cx="860" cy="445" r="3" fill="#333"/>
    <rect x="853" y="455" width="4" height="20" fill="#c0a000"/><rect x="864" y="455" width="4" height="20" fill="#c0a000"/>
    <text x="860" y="488" text-anchor="middle" fill="#333" font-size="8" font-weight="bold">BUZZER</text>
    <text x="860" y="498" text-anchor="middle" fill="#555" font-size="7">PC1</text>
  </g>

  <!-- ═══════════════════════════════════════
       WIRES
       ═══════════════════════════════════════ -->
  <!-- SPI wires: RC522 to STM32 (yellow) -->
  <polyline points="190,164 260,164 260,164 330,164" fill="none" stroke="#f59e0b" stroke-width="2.5"/>
  <polyline points="190,173 255,173 255,173 330,173" fill="none" stroke="#f59e0b" stroke-width="2"/>
  <polyline points="190,182 250,182 250,182 330,182" fill="none" stroke="#f59e0b" stroke-width="2"/>
  <polyline points="190,191 245,191 245,191 330,191" fill="none" stroke="#f59e0b" stroke-width="2"/>
  <polyline points="190,200 240,200 240,200 330,200" fill="none" stroke="#f59e0b" stroke-width="2"/>

  <!-- DHT11 wire to STM (orange) -->
  <polyline points="85,348 85,410 285,410 285,297 330,297" fill="none" stroke="#f97316" stroke-width="2.5"/>

  <!-- VCC/GND wires (red/black) from STM to DHT11 -->
  <polyline points="330,232 290,232 290,350 71,350" fill="none" stroke="#ef4444" stroke-width="2"/>
  <polyline points="330,258 294,258 294,365 96,365" fill="none" stroke="#1f2937" stroke-width="2"/>

  <!-- DS1307 I2C wires (purple) -->
  <polyline points="77,524 77,560 280,560 280,271 330,271" fill="none" stroke="#8b5cf6" stroke-width="2.5"/>
  <polyline points="89,524 89,565 285,565 285,284 330,284" fill="none" stroke="#8b5cf6" stroke-width="2"/>

  <!-- PIR wire to STM (violet) -->
  <polyline points="775,202 775,240 640,240 640,164 580,164" fill="none" stroke="#7c3aed" stroke-width="2.5"/>

  <!-- ESP8266 UART wires (cyan) -->
  <polyline points="737,374 737,400 640,400 640,180 580,180" fill="none" stroke="#06b6d4" stroke-width="2.5"/>
  <polyline points="749,374 749,406 644,406 644,193 580,193" fill="none" stroke="#06b6d4" stroke-width="2"/>

  <!-- LED wires (green, red, yellow) -->
  <polyline points="706,460 706,420 630,420 630,206 580,206" fill="none" stroke="#22c55e" stroke-width="2.5"/>
  <polyline points="757,460 757,415 634,415 634,219 580,219" fill="none" stroke="#ef4444" stroke-width="2.5"/>
  <polyline points="807,460 807,412 638,412 638,232 580,232" fill="none" stroke="#eab308" stroke-width="2.5"/>
  <!-- Buzzer wire -->
  <polyline points="857,455 857,408 642,408 642,245 580,245" fill="none" stroke="#ec4899" stroke-width="2.5"/>

  <!-- Wire dots at junctions -->
  <g fill="#f59e0b"><circle cx="330" cy="164" r="3.5"/><circle cx="330" cy="173" r="3.5"/><circle cx="330" cy="182" r="3.5"/><circle cx="330" cy="191" r="3.5"/><circle cx="330" cy="200" r="3.5"/></g>
  <g fill="#8b5cf6"><circle cx="330" cy="271" r="3.5"/><circle cx="330" cy="284" r="3.5"/></g>
  <g fill="#f97316"><circle cx="330" cy="297" r="3.5"/></g>
  <g fill="#7c3aed"><circle cx="580" cy="164" r="3.5"/></g>
  <g fill="#06b6d4"><circle cx="580" cy="180" r="3.5"/><circle cx="580" cy="193" r="3.5"/></g>
  <g fill="#22c55e"><circle cx="580" cy="206" r="3.5"/></g>
  <g fill="#ef4444"><circle cx="580" cy="219" r="3.5"/></g>
  <g fill="#eab308"><circle cx="580" cy="232" r="3.5"/></g>
  <g fill="#ec4899"><circle cx="580" cy="245" r="3.5"/></g>

  <!-- ═══════════════════════════════════════
       WIRE LEGEND
       ═══════════════════════════════════════ -->
  <rect x="40" y="550" width="590" height="80" rx="6" fill="white" fill-opacity="0.85" stroke="#ddd" stroke-width="1"/>
  <text x="335" y="566" text-anchor="middle" fill="#1e293b" font-size="9" font-weight="bold">Wire Legend</text>
  <g font-size="8" fill="#374151">
    <line x1="55" y1="578" x2="90" y2="578" stroke="#f59e0b" stroke-width="2.5"/><text x="95" y="582">SPI1 — RC522 RFID (PA4/PA5/PA6/PA7/PC7)</text>
    <line x1="55" y1="593" x2="90" y2="593" stroke="#8b5cf6" stroke-width="2.5"/><text x="95" y="597">I2C1 — DS1307 RTC (PB7 SDA / PB6 SCL)</text>
    <line x1="55" y1="608" x2="90" y2="608" stroke="#f97316" stroke-width="2.5"/><text x="95" y="612">GPIO — DHT11 Data (PA9)</text>
    <line x1="310" y1="578" x2="345" y2="578" stroke="#7c3aed" stroke-width="2.5"/><text x="350" y="582">EXTI — PIR Motion (PC0)</text>
    <line x1="310" y1="593" x2="345" y2="593" stroke="#06b6d4" stroke-width="2.5"/><text x="350" y="597">USART2 — ESP8266 (PA2 TX / PA3 RX)</text>
    <line x1="310" y1="608" x2="345" y2="608" stroke="#22c55e" stroke-width="2.5"/><text x="350" y="612">GPIO — LEDs (PB0 G / PB1 R / PB2 Y) + Buzzer (PC1)</text>
  </g>
</svg>
